<mxfile host="Electron" agent="Mozilla/5.0 (Windows NT 10.0; Win64; x64) AppleWebKit/537.36 (KHTML, like Gecko) draw.io/24.7.17 Chrome/128.0.6613.36 Electron/32.0.1 Safari/537.36" version="24.7.17">
  <diagram id="prtHgNgQTEPvFCAcTncT" name="Page-1">
    <mxGraphModel dx="1500" dy="887" grid="1" gridSize="10" guides="1" tooltips="1" connect="1" arrows="1" fold="1" page="1" pageScale="1" pageWidth="900" pageHeight="1600" math="0" shadow="0">
      <root>
        <mxCell id="0" />
        <mxCell id="1" parent="0" />
        <mxCell id="Pn4WweYOpcGrfkvwjS48-6" value="&lt;font style=&quot;font-size: 24px;&quot;&gt;Student&lt;/font&gt;" style="swimlane;html=1;startSize=50;fontStyle=0;collapsible=0;horizontal=0;swimlaneLine=1;swimlaneFillColor=#ffffff;strokeWidth=2;whiteSpace=wrap;strokeColor=default;align=center;verticalAlign=middle;fontFamily=Helvetica;fontSize=12;fontColor=default;fillColor=default;" parent="1" vertex="1">
          <mxGeometry x="50" y="40" width="2470" height="440" as="geometry" />
        </mxCell>
        <mxCell id="Pn4WweYOpcGrfkvwjS48-16" value="" style="edgeStyle=orthogonalEdgeStyle;rounded=0;orthogonalLoop=1;jettySize=auto;html=1;fontFamily=Helvetica;fontSize=12;fontColor=default;fontStyle=1;" parent="Pn4WweYOpcGrfkvwjS48-6" source="Pn4WweYOpcGrfkvwjS48-7" target="Pn4WweYOpcGrfkvwjS48-15" edge="1">
          <mxGeometry relative="1" as="geometry" />
        </mxCell>
        <mxCell id="Pn4WweYOpcGrfkvwjS48-18" value="" style="edgeStyle=orthogonalEdgeStyle;rounded=0;orthogonalLoop=1;jettySize=auto;html=1;fontFamily=Helvetica;fontSize=12;fontColor=default;fontStyle=1;" parent="Pn4WweYOpcGrfkvwjS48-6" source="Pn4WweYOpcGrfkvwjS48-15" target="Pn4WweYOpcGrfkvwjS48-17" edge="1">
          <mxGeometry relative="1" as="geometry" />
        </mxCell>
        <mxCell id="Pn4WweYOpcGrfkvwjS48-19" value="" style="whiteSpace=wrap;html=1;fontStyle=1;points=[[0.25,0.25,0],[0.5,0,0],[0.75,0.25,0],[1,0.5,0],[0.75,0.75,0],[0.5,1,0],[0.25,0.75,0],[0,0.5,0]];shape=mxgraph.bpmn.gateway2;verticalLabelPosition=bottom;labelBackgroundColor=#ffffff;verticalAlign=top;perimeter=rhombusPerimeter;outlineConnect=0;outline=none;symbol=none;gwType=exclusive;" parent="Pn4WweYOpcGrfkvwjS48-6" vertex="1">
          <mxGeometry x="900" y="259.38" width="80" height="80" as="geometry" />
        </mxCell>
        <mxCell id="Pn4WweYOpcGrfkvwjS48-13" style="edgeStyle=orthogonalEdgeStyle;rounded=0;orthogonalLoop=1;jettySize=auto;html=1;entryX=0;entryY=0.5;entryDx=0;entryDy=0;entryPerimeter=0;fontFamily=Helvetica;fontSize=12;fontColor=default;fontStyle=1;" parent="Pn4WweYOpcGrfkvwjS48-6" source="Pn4WweYOpcGrfkvwjS48-8" target="Pn4WweYOpcGrfkvwjS48-7" edge="1">
          <mxGeometry relative="1" as="geometry" />
        </mxCell>
        <mxCell id="Pn4WweYOpcGrfkvwjS48-8" value="" style="points=[[0.145,0.145,0],[0.5,0,0],[0.855,0.145,0],[1,0.5,0],[0.855,0.855,0],[0.5,1,0],[0.145,0.855,0],[0,0.5,0]];shape=mxgraph.bpmn.event;html=1;verticalLabelPosition=bottom;labelBackgroundColor=#ffffff;verticalAlign=top;align=center;perimeter=ellipsePerimeter;outlineConnect=0;aspect=fixed;outline=standard;symbol=general;strokeColor=default;fontFamily=Helvetica;fontSize=12;fontColor=default;fontStyle=1;fillColor=default;" parent="Pn4WweYOpcGrfkvwjS48-6" vertex="1">
          <mxGeometry x="60" y="180" width="60" height="60" as="geometry" />
        </mxCell>
        <mxCell id="Pn4WweYOpcGrfkvwjS48-7" value="&lt;font style=&quot;font-size: 18px;&quot;&gt;Apply Online&lt;/font&gt;" style="points=[[0.25,0,0],[0.5,0,0],[0.75,0,0],[1,0.25,0],[1,0.5,0],[1,0.75,0],[0.75,1,0],[0.5,1,0],[0.25,1,0],[0,0.75,0],[0,0.5,0],[0,0.25,0]];shape=mxgraph.bpmn.task;whiteSpace=wrap;rectStyle=rounded;size=10;html=1;container=1;expand=0;collapsible=0;taskMarker=abstract;strokeColor=default;align=center;verticalAlign=middle;fontFamily=Helvetica;fontSize=12;fontColor=default;fontStyle=1;fillColor=default;" parent="Pn4WweYOpcGrfkvwjS48-6" vertex="1">
          <mxGeometry x="170" y="177.5" width="100" height="65" as="geometry" />
        </mxCell>
        <mxCell id="Pn4WweYOpcGrfkvwjS48-15" value="&lt;font style=&quot;font-size: 18px;&quot;&gt;Online Protocal&lt;/font&gt;" style="points=[[0.25,0,0],[0.5,0,0],[0.75,0,0],[1,0.25,0],[1,0.5,0],[1,0.75,0],[0.75,1,0],[0.5,1,0],[0.25,1,0],[0,0.75,0],[0,0.5,0],[0,0.25,0]];shape=mxgraph.bpmn.task;whiteSpace=wrap;rectStyle=rounded;size=10;html=1;container=1;expand=0;collapsible=0;taskMarker=abstract;strokeColor=default;align=center;verticalAlign=middle;fontFamily=Helvetica;fontSize=12;fontColor=default;fontStyle=1;fillColor=default;" parent="Pn4WweYOpcGrfkvwjS48-6" vertex="1">
          <mxGeometry x="330" y="177.5" width="100" height="65" as="geometry" />
        </mxCell>
        <mxCell id="Pn4WweYOpcGrfkvwjS48-17" value="&lt;font style=&quot;font-size: 18px;&quot;&gt;Send Documents&lt;/font&gt;" style="points=[[0.25,0,0],[0.5,0,0],[0.75,0,0],[1,0.25,0],[1,0.5,0],[1,0.75,0],[0.75,1,0],[0.5,1,0],[0.25,1,0],[0,0.75,0],[0,0.5,0],[0,0.25,0]];shape=mxgraph.bpmn.task;whiteSpace=wrap;rectStyle=rounded;size=10;html=1;container=1;expand=0;collapsible=0;taskMarker=abstract;strokeColor=default;align=center;verticalAlign=middle;fontFamily=Helvetica;fontSize=12;fontColor=default;fontStyle=1;fillColor=default;" parent="Pn4WweYOpcGrfkvwjS48-6" vertex="1">
          <mxGeometry x="460" y="176.25" width="100" height="65" as="geometry" />
        </mxCell>
        <mxCell id="Pn4WweYOpcGrfkvwjS48-41" value="" style="edgeStyle=orthogonalEdgeStyle;rounded=0;orthogonalLoop=1;jettySize=auto;html=1;fontFamily=Helvetica;fontSize=12;fontColor=default;fontStyle=1;entryX=0.5;entryY=0;entryDx=0;entryDy=0;entryPerimeter=0;exitX=1;exitY=0.5;exitDx=0;exitDy=0;exitPerimeter=0;" parent="Pn4WweYOpcGrfkvwjS48-6" source="Pn4WweYOpcGrfkvwjS48-33" target="zia7eN0cnvc3IN7epjm3-16" edge="1">
          <mxGeometry relative="1" as="geometry">
            <mxPoint x="1420" y="247.5" as="targetPoint" />
            <Array as="points">
              <mxPoint x="2130" y="150" />
            </Array>
          </mxGeometry>
        </mxCell>
        <mxCell id="Pn4WweYOpcGrfkvwjS48-33" value="&lt;font style=&quot;font-size: 18px;&quot;&gt;Skip&lt;/font&gt;" style="points=[[0.25,0,0],[0.5,0,0],[0.75,0,0],[1,0.25,0],[1,0.5,0],[1,0.75,0],[0.75,1,0],[0.5,1,0],[0.25,1,0],[0,0.75,0],[0,0.5,0],[0,0.25,0]];shape=mxgraph.bpmn.task;whiteSpace=wrap;rectStyle=rounded;size=10;html=1;container=1;expand=0;collapsible=0;taskMarker=abstract;strokeColor=default;align=center;verticalAlign=middle;fontFamily=Helvetica;fontSize=12;fontColor=default;fontStyle=1;fillColor=default;" parent="Pn4WweYOpcGrfkvwjS48-6" vertex="1">
          <mxGeometry x="1100" y="110" width="120" height="80" as="geometry" />
        </mxCell>
        <mxCell id="Pn4WweYOpcGrfkvwjS48-24" value="" style="edgeStyle=orthogonalEdgeStyle;rounded=0;orthogonalLoop=1;jettySize=auto;html=1;fontFamily=Helvetica;fontSize=12;fontColor=default;fontStyle=1;exitX=0.5;exitY=1;exitDx=0;exitDy=0;exitPerimeter=0;entryX=0;entryY=0.5;entryDx=0;entryDy=0;entryPerimeter=0;" parent="Pn4WweYOpcGrfkvwjS48-6" source="Pn4WweYOpcGrfkvwjS48-19" target="Pn4WweYOpcGrfkvwjS48-35" edge="1">
          <mxGeometry relative="1" as="geometry">
            <mxPoint x="817.5" y="290" as="targetPoint" />
            <Array as="points">
              <mxPoint x="940" y="345" />
            </Array>
          </mxGeometry>
        </mxCell>
        <mxCell id="Pn4WweYOpcGrfkvwjS48-34" value="&lt;font style=&quot;font-size: 18px;&quot;&gt;Take Aptitude Test&lt;/font&gt;" style="points=[[0.25,0,0],[0.5,0,0],[0.75,0,0],[1,0.25,0],[1,0.5,0],[1,0.75,0],[0.75,1,0],[0.5,1,0],[0.25,1,0],[0,0.75,0],[0,0.5,0],[0,0.25,0]];shape=mxgraph.bpmn.task;whiteSpace=wrap;rectStyle=rounded;size=10;html=1;container=1;expand=0;collapsible=0;taskMarker=abstract;strokeColor=default;align=center;verticalAlign=middle;fontFamily=Helvetica;fontSize=12;fontColor=default;fontStyle=1;fillColor=default;" parent="Pn4WweYOpcGrfkvwjS48-6" vertex="1">
          <mxGeometry x="1230" y="305" width="120" height="80" as="geometry" />
        </mxCell>
        <mxCell id="Pn4WweYOpcGrfkvwjS48-119" style="edgeStyle=orthogonalEdgeStyle;rounded=0;orthogonalLoop=1;jettySize=auto;html=1;fontFamily=Helvetica;fontSize=12;fontColor=default;fontStyle=1;" parent="Pn4WweYOpcGrfkvwjS48-6" source="Pn4WweYOpcGrfkvwjS48-35" target="Pn4WweYOpcGrfkvwjS48-34" edge="1">
          <mxGeometry relative="1" as="geometry" />
        </mxCell>
        <mxCell id="Pn4WweYOpcGrfkvwjS48-35" value="&lt;font style=&quot;font-size: 18px;&quot;&gt;Pay Aptitude Test&lt;/font&gt;" style="points=[[0.25,0,0],[0.5,0,0],[0.75,0,0],[1,0.25,0],[1,0.5,0],[1,0.75,0],[0.75,1,0],[0.5,1,0],[0.25,1,0],[0,0.75,0],[0,0.5,0],[0,0.25,0]];shape=mxgraph.bpmn.task;whiteSpace=wrap;rectStyle=rounded;size=10;html=1;container=1;expand=0;collapsible=0;taskMarker=abstract;strokeColor=default;align=center;verticalAlign=middle;fontFamily=Helvetica;fontSize=12;fontColor=default;fontStyle=1;fillColor=default;" parent="Pn4WweYOpcGrfkvwjS48-6" vertex="1">
          <mxGeometry x="1030" y="300" width="130" height="90" as="geometry" />
        </mxCell>
        <mxCell id="Pn4WweYOpcGrfkvwjS48-38" style="edgeStyle=orthogonalEdgeStyle;rounded=0;orthogonalLoop=1;jettySize=auto;html=1;entryX=0;entryY=0.5;entryDx=0;entryDy=0;entryPerimeter=0;fontFamily=Helvetica;fontSize=12;fontColor=default;fontStyle=1;" parent="Pn4WweYOpcGrfkvwjS48-6" source="Pn4WweYOpcGrfkvwjS48-19" target="Pn4WweYOpcGrfkvwjS48-33" edge="1">
          <mxGeometry relative="1" as="geometry">
            <Array as="points">
              <mxPoint x="940" y="150" />
            </Array>
          </mxGeometry>
        </mxCell>
        <mxCell id="Pn4WweYOpcGrfkvwjS48-55" value="" style="whiteSpace=wrap;html=1;fontStyle=1;points=[[0.25,0.25,0],[0.5,0,0],[0.75,0.25,0],[1,0.5,0],[0.75,0.75,0],[0.5,1,0],[0.25,0.75,0],[0,0.5,0]];shape=mxgraph.bpmn.gateway2;verticalLabelPosition=bottom;labelBackgroundColor=#ffffff;verticalAlign=top;perimeter=rhombusPerimeter;outlineConnect=0;outline=none;symbol=none;gwType=exclusive;" parent="Pn4WweYOpcGrfkvwjS48-6" vertex="1">
          <mxGeometry x="1610" y="248.75" width="80" height="80" as="geometry" />
        </mxCell>
        <mxCell id="Pn4WweYOpcGrfkvwjS48-66" value="" style="edgeStyle=orthogonalEdgeStyle;rounded=0;orthogonalLoop=1;jettySize=auto;html=1;fontFamily=Helvetica;fontSize=12;fontColor=default;fontStyle=1;" parent="Pn4WweYOpcGrfkvwjS48-6" source="Pn4WweYOpcGrfkvwjS48-58" target="Pn4WweYOpcGrfkvwjS48-65" edge="1">
          <mxGeometry relative="1" as="geometry">
            <Array as="points">
              <mxPoint x="2010" y="210" />
            </Array>
          </mxGeometry>
        </mxCell>
        <mxCell id="Pn4WweYOpcGrfkvwjS48-58" value="&lt;font style=&quot;font-size: 18px;&quot;&gt;Receive Reject&lt;/font&gt;" style="points=[[0.25,0,0],[0.5,0,0],[0.75,0,0],[1,0.25,0],[1,0.5,0],[1,0.75,0],[0.75,1,0],[0.5,1,0],[0.25,1,0],[0,0.75,0],[0,0.5,0],[0,0.25,0]];shape=mxgraph.bpmn.task;whiteSpace=wrap;rectStyle=rounded;size=10;html=1;container=1;expand=0;collapsible=0;taskMarker=abstract;strokeColor=default;align=center;verticalAlign=middle;fontFamily=Helvetica;fontSize=12;fontColor=default;fontStyle=1;fillColor=default;" parent="Pn4WweYOpcGrfkvwjS48-6" vertex="1">
          <mxGeometry x="1800" y="170" width="120" height="80" as="geometry" />
        </mxCell>
        <mxCell id="Pn4WweYOpcGrfkvwjS48-60" value="&lt;font style=&quot;font-size: 18px;&quot;&gt;Receive Accept&lt;/font&gt;" style="points=[[0.25,0,0],[0.5,0,0],[0.75,0,0],[1,0.25,0],[1,0.5,0],[1,0.75,0],[0.75,1,0],[0.5,1,0],[0.25,1,0],[0,0.75,0],[0,0.5,0],[0,0.25,0]];shape=mxgraph.bpmn.task;whiteSpace=wrap;rectStyle=rounded;size=10;html=1;container=1;expand=0;collapsible=0;taskMarker=abstract;strokeColor=default;align=center;verticalAlign=middle;fontFamily=Helvetica;fontSize=12;fontColor=default;fontStyle=1;fillColor=default;" parent="Pn4WweYOpcGrfkvwjS48-6" vertex="1">
          <mxGeometry x="1800" y="310" width="120" height="80" as="geometry" />
        </mxCell>
        <mxCell id="4EXdFSTyuXDdfIWTXwxw-15" value="&lt;font style=&quot;font-size: 18px;&quot;&gt;Receive Evaluation&lt;/font&gt;" style="points=[[0.25,0,0],[0.5,0,0],[0.75,0,0],[1,0.25,0],[1,0.5,0],[1,0.75,0],[0.75,1,0],[0.5,1,0],[0.25,1,0],[0,0.75,0],[0,0.5,0],[0,0.25,0]];shape=mxgraph.bpmn.task;whiteSpace=wrap;rectStyle=rounded;size=10;html=1;container=1;expand=0;collapsible=0;taskMarker=abstract;" parent="Pn4WweYOpcGrfkvwjS48-6" vertex="1">
          <mxGeometry x="590" y="177.5" width="100" height="62.5" as="geometry" />
        </mxCell>
        <mxCell id="4EXdFSTyuXDdfIWTXwxw-18" style="edgeStyle=orthogonalEdgeStyle;rounded=0;orthogonalLoop=1;jettySize=auto;html=1;exitX=1;exitY=0.5;exitDx=0;exitDy=0;exitPerimeter=0;entryX=0;entryY=0.5;entryDx=0;entryDy=0;entryPerimeter=0;" parent="Pn4WweYOpcGrfkvwjS48-6" source="Pn4WweYOpcGrfkvwjS48-17" target="4EXdFSTyuXDdfIWTXwxw-15" edge="1">
          <mxGeometry relative="1" as="geometry" />
        </mxCell>
        <mxCell id="bj5GfQhjBjfG_a5erBIj-1" style="edgeStyle=orthogonalEdgeStyle;rounded=0;orthogonalLoop=1;jettySize=auto;html=1;entryX=0;entryY=0.5;entryDx=0;entryDy=0;entryPerimeter=0;" edge="1" parent="Pn4WweYOpcGrfkvwjS48-6" source="zia7eN0cnvc3IN7epjm3-7" target="Pn4WweYOpcGrfkvwjS48-19">
          <mxGeometry relative="1" as="geometry">
            <mxPoint x="880" y="300" as="targetPoint" />
            <Array as="points">
              <mxPoint x="760" y="299" />
            </Array>
          </mxGeometry>
        </mxCell>
        <mxCell id="zia7eN0cnvc3IN7epjm3-7" value="" style="whiteSpace=wrap;html=1;fontStyle=1;points=[[0.25,0.25,0],[0.5,0,0],[0.75,0.25,0],[1,0.5,0],[0.75,0.75,0],[0.5,1,0],[0.25,0.75,0],[0,0.5,0]];shape=mxgraph.bpmn.gateway2;verticalLabelPosition=bottom;labelBackgroundColor=#ffffff;verticalAlign=top;perimeter=rhombusPerimeter;outlineConnect=0;outline=none;symbol=none;gwType=exclusive;" parent="Pn4WweYOpcGrfkvwjS48-6" vertex="1">
          <mxGeometry x="720" y="168.75" width="80" height="80" as="geometry" />
        </mxCell>
        <mxCell id="zia7eN0cnvc3IN7epjm3-8" value="" style="edgeStyle=orthogonalEdgeStyle;rounded=0;orthogonalLoop=1;jettySize=auto;html=1;exitX=1;exitY=0.5;exitDx=0;exitDy=0;exitPerimeter=0;entryX=0;entryY=0.5;entryDx=0;entryDy=0;entryPerimeter=0;" parent="Pn4WweYOpcGrfkvwjS48-6" source="4EXdFSTyuXDdfIWTXwxw-15" target="zia7eN0cnvc3IN7epjm3-7" edge="1">
          <mxGeometry relative="1" as="geometry">
            <mxPoint x="740" y="269" as="sourcePoint" />
            <mxPoint x="970" y="270" as="targetPoint" />
          </mxGeometry>
        </mxCell>
        <mxCell id="zia7eN0cnvc3IN7epjm3-15" value="" style="edgeStyle=orthogonalEdgeStyle;rounded=0;orthogonalLoop=1;jettySize=auto;html=1;" parent="Pn4WweYOpcGrfkvwjS48-6" source="Pn4WweYOpcGrfkvwjS48-60" target="Pn4WweYOpcGrfkvwjS48-65" edge="1">
          <mxGeometry relative="1" as="geometry">
            <mxPoint x="2050" y="320" as="targetPoint" />
            <mxPoint x="1970" y="410" as="sourcePoint" />
            <Array as="points">
              <mxPoint x="2010" y="350" />
            </Array>
          </mxGeometry>
        </mxCell>
        <mxCell id="Pn4WweYOpcGrfkvwjS48-65" value="" style="whiteSpace=wrap;html=1;fontStyle=1;points=[[0.25,0.25,0],[0.5,0,0],[0.75,0.25,0],[1,0.5,0],[0.75,0.75,0],[0.5,1,0],[0.25,0.75,0],[0,0.5,0]];shape=mxgraph.bpmn.gateway2;verticalLabelPosition=bottom;labelBackgroundColor=#ffffff;verticalAlign=top;perimeter=rhombusPerimeter;outlineConnect=0;outline=none;symbol=none;gwType=exclusive;" parent="Pn4WweYOpcGrfkvwjS48-6" vertex="1">
          <mxGeometry x="1970" y="248.75" width="80" height="80" as="geometry" />
        </mxCell>
        <mxCell id="zia7eN0cnvc3IN7epjm3-16" value="" style="whiteSpace=wrap;html=1;fontStyle=1;points=[[0.25,0.25,0],[0.5,0,0],[0.75,0.25,0],[1,0.5,0],[0.75,0.75,0],[0.5,1,0],[0.25,0.75,0],[0,0.5,0]];shape=mxgraph.bpmn.gateway2;verticalLabelPosition=bottom;labelBackgroundColor=#ffffff;verticalAlign=top;perimeter=rhombusPerimeter;outlineConnect=0;outline=none;symbol=none;gwType=exclusive;" parent="Pn4WweYOpcGrfkvwjS48-6" vertex="1">
          <mxGeometry x="2090" y="190" width="80" height="80" as="geometry" />
        </mxCell>
        <mxCell id="zia7eN0cnvc3IN7epjm3-21" value="" style="edgeStyle=orthogonalEdgeStyle;rounded=0;orthogonalLoop=1;jettySize=auto;html=1;" parent="Pn4WweYOpcGrfkvwjS48-6" source="zia7eN0cnvc3IN7epjm3-17" edge="1">
          <mxGeometry relative="1" as="geometry">
            <mxPoint x="2360" y="160" as="targetPoint" />
          </mxGeometry>
        </mxCell>
        <mxCell id="zia7eN0cnvc3IN7epjm3-17" value="" style="whiteSpace=wrap;html=1;fontStyle=1;points=[[0.25,0.25,0],[0.5,0,0],[0.75,0.25,0],[1,0.5,0],[0.75,0.75,0],[0.5,1,0],[0.25,0.75,0],[0,0.5,0]];shape=mxgraph.bpmn.gateway2;verticalLabelPosition=bottom;labelBackgroundColor=#ffffff;verticalAlign=top;perimeter=rhombusPerimeter;outlineConnect=0;outline=none;symbol=none;gwType=exclusive;" parent="Pn4WweYOpcGrfkvwjS48-6" vertex="1">
          <mxGeometry x="2200" y="120" width="80" height="80" as="geometry" />
        </mxCell>
        <mxCell id="zia7eN0cnvc3IN7epjm3-18" style="edgeStyle=orthogonalEdgeStyle;rounded=0;orthogonalLoop=1;jettySize=auto;html=1;entryX=0.5;entryY=1;entryDx=0;entryDy=0;entryPerimeter=0;" parent="Pn4WweYOpcGrfkvwjS48-6" source="Pn4WweYOpcGrfkvwjS48-65" target="zia7eN0cnvc3IN7epjm3-16" edge="1">
          <mxGeometry relative="1" as="geometry" />
        </mxCell>
        <mxCell id="zia7eN0cnvc3IN7epjm3-19" style="edgeStyle=orthogonalEdgeStyle;rounded=0;orthogonalLoop=1;jettySize=auto;html=1;exitX=1;exitY=0.5;exitDx=0;exitDy=0;exitPerimeter=0;entryX=0.5;entryY=1;entryDx=0;entryDy=0;entryPerimeter=0;" parent="Pn4WweYOpcGrfkvwjS48-6" source="zia7eN0cnvc3IN7epjm3-16" target="zia7eN0cnvc3IN7epjm3-17" edge="1">
          <mxGeometry relative="1" as="geometry" />
        </mxCell>
        <mxCell id="zia7eN0cnvc3IN7epjm3-22" value="" style="points=[[0.145,0.145,0],[0.5,0,0],[0.855,0.145,0],[1,0.5,0],[0.855,0.855,0],[0.5,1,0],[0.145,0.855,0],[0,0.5,0]];shape=mxgraph.bpmn.event;html=1;verticalLabelPosition=bottom;labelBackgroundColor=#ffffff;verticalAlign=top;align=center;perimeter=ellipsePerimeter;outlineConnect=0;aspect=fixed;outline=end;symbol=terminate2;strokeColor=default;fontFamily=Helvetica;fontSize=12;fontColor=default;fontStyle=1;fillColor=default;" parent="Pn4WweYOpcGrfkvwjS48-6" vertex="1">
          <mxGeometry x="2360" y="130" width="60" height="60" as="geometry" />
        </mxCell>
        <mxCell id="zia7eN0cnvc3IN7epjm3-27" value="&lt;font style=&quot;font-size: 18px;&quot;&gt;Wait Results&lt;/font&gt;" style="points=[[0.25,0,0],[0.5,0,0],[0.75,0,0],[1,0.25,0],[1,0.5,0],[1,0.75,0],[0.75,1,0],[0.5,1,0],[0.25,1,0],[0,0.75,0],[0,0.5,0],[0,0.25,0]];shape=mxgraph.bpmn.task;whiteSpace=wrap;rectStyle=rounded;size=10;html=1;container=1;expand=0;collapsible=0;taskMarker=abstract;strokeColor=default;align=center;verticalAlign=middle;fontFamily=Helvetica;fontSize=12;fontColor=default;fontStyle=1;fillColor=default;" parent="Pn4WweYOpcGrfkvwjS48-6" vertex="1">
          <mxGeometry x="1390" y="305" width="120" height="80" as="geometry" />
        </mxCell>
        <mxCell id="zia7eN0cnvc3IN7epjm3-28" style="edgeStyle=orthogonalEdgeStyle;rounded=0;orthogonalLoop=1;jettySize=auto;html=1;exitX=1;exitY=0.5;exitDx=0;exitDy=0;exitPerimeter=0;entryX=0;entryY=0.5;entryDx=0;entryDy=0;entryPerimeter=0;" parent="Pn4WweYOpcGrfkvwjS48-6" source="Pn4WweYOpcGrfkvwjS48-34" target="zia7eN0cnvc3IN7epjm3-27" edge="1">
          <mxGeometry relative="1" as="geometry" />
        </mxCell>
        <mxCell id="zia7eN0cnvc3IN7epjm3-29" style="edgeStyle=orthogonalEdgeStyle;rounded=0;orthogonalLoop=1;jettySize=auto;html=1;entryX=0;entryY=0.5;entryDx=0;entryDy=0;entryPerimeter=0;" parent="Pn4WweYOpcGrfkvwjS48-6" source="zia7eN0cnvc3IN7epjm3-27" target="Pn4WweYOpcGrfkvwjS48-55" edge="1">
          <mxGeometry relative="1" as="geometry" />
        </mxCell>
        <mxCell id="zia7eN0cnvc3IN7epjm3-30" style="edgeStyle=orthogonalEdgeStyle;rounded=0;orthogonalLoop=1;jettySize=auto;html=1;entryX=0;entryY=0.5;entryDx=0;entryDy=0;entryPerimeter=0;" parent="Pn4WweYOpcGrfkvwjS48-6" source="Pn4WweYOpcGrfkvwjS48-55" target="Pn4WweYOpcGrfkvwjS48-58" edge="1">
          <mxGeometry relative="1" as="geometry">
            <Array as="points">
              <mxPoint x="1650" y="210" />
            </Array>
          </mxGeometry>
        </mxCell>
        <mxCell id="zia7eN0cnvc3IN7epjm3-31" style="edgeStyle=orthogonalEdgeStyle;rounded=0;orthogonalLoop=1;jettySize=auto;html=1;entryX=0;entryY=0.5;entryDx=0;entryDy=0;entryPerimeter=0;" parent="Pn4WweYOpcGrfkvwjS48-6" source="Pn4WweYOpcGrfkvwjS48-55" target="Pn4WweYOpcGrfkvwjS48-60" edge="1">
          <mxGeometry relative="1" as="geometry">
            <Array as="points">
              <mxPoint x="1650" y="350" />
            </Array>
          </mxGeometry>
        </mxCell>
        <mxCell id="zia7eN0cnvc3IN7epjm3-34" style="edgeStyle=orthogonalEdgeStyle;rounded=0;orthogonalLoop=1;jettySize=auto;html=1;entryX=0.5;entryY=0;entryDx=0;entryDy=0;entryPerimeter=0;" parent="Pn4WweYOpcGrfkvwjS48-6" source="zia7eN0cnvc3IN7epjm3-7" target="zia7eN0cnvc3IN7epjm3-17" edge="1">
          <mxGeometry relative="1" as="geometry">
            <Array as="points">
              <mxPoint x="760" y="60" />
              <mxPoint x="2240" y="60" />
            </Array>
            <mxPoint x="1360" y="60" as="targetPoint" />
          </mxGeometry>
        </mxCell>
        <mxCell id="bj5GfQhjBjfG_a5erBIj-2" value="&lt;font style=&quot;font-size: 18px;&quot;&gt;Accept&lt;/font&gt;" style="text;html=1;align=center;verticalAlign=middle;whiteSpace=wrap;rounded=0;" vertex="1" parent="Pn4WweYOpcGrfkvwjS48-6">
          <mxGeometry x="770" y="259" width="60" height="30" as="geometry" />
        </mxCell>
        <mxCell id="bj5GfQhjBjfG_a5erBIj-45" value="&lt;font style=&quot;font-size: 18px;&quot;&gt;Reject&lt;/font&gt;" style="text;html=1;align=center;verticalAlign=middle;whiteSpace=wrap;rounded=0;" vertex="1" parent="Pn4WweYOpcGrfkvwjS48-6">
          <mxGeometry x="770" y="80" width="60" height="30" as="geometry" />
        </mxCell>
        <mxCell id="Pn4WweYOpcGrfkvwjS48-10" value="&lt;font style=&quot;font-size: 24px;&quot;&gt;University&lt;/font&gt;" style="swimlane;html=1;startSize=50;fontStyle=0;collapsible=0;horizontal=0;swimlaneLine=1;swimlaneFillColor=#ffffff;strokeWidth=2;whiteSpace=wrap;strokeColor=default;align=center;verticalAlign=middle;fontFamily=Helvetica;fontSize=12;fontColor=default;fillColor=default;" parent="1" vertex="1">
          <mxGeometry x="50" y="580" width="2470" height="340" as="geometry" />
        </mxCell>
        <mxCell id="Pn4WweYOpcGrfkvwjS48-91" style="edgeStyle=orthogonalEdgeStyle;rounded=0;orthogonalLoop=1;jettySize=auto;html=1;fontFamily=Helvetica;fontSize=12;fontColor=default;fontStyle=1;" parent="Pn4WweYOpcGrfkvwjS48-10" source="Pn4WweYOpcGrfkvwjS48-11" target="Pn4WweYOpcGrfkvwjS48-70" edge="1">
          <mxGeometry relative="1" as="geometry" />
        </mxCell>
        <mxCell id="Pn4WweYOpcGrfkvwjS48-11" value="" style="points=[[0.145,0.145,0],[0.5,0,0],[0.855,0.145,0],[1,0.5,0],[0.855,0.855,0],[0.5,1,0],[0.145,0.855,0],[0,0.5,0]];shape=mxgraph.bpmn.event;html=1;verticalLabelPosition=bottom;labelBackgroundColor=#ffffff;verticalAlign=top;align=center;perimeter=ellipsePerimeter;outlineConnect=0;aspect=fixed;outline=standard;symbol=general;strokeColor=default;fontFamily=Helvetica;fontSize=12;fontColor=default;fontStyle=1;fillColor=default;" parent="Pn4WweYOpcGrfkvwjS48-10" vertex="1">
          <mxGeometry x="60" y="110" width="60" height="60" as="geometry" />
        </mxCell>
        <mxCell id="Pn4WweYOpcGrfkvwjS48-70" value="&lt;font style=&quot;font-size: 18px;&quot;&gt;Receive Documents&lt;/font&gt;" style="points=[[0.25,0,0],[0.5,0,0],[0.75,0,0],[1,0.25,0],[1,0.5,0],[1,0.75,0],[0.75,1,0],[0.5,1,0],[0.25,1,0],[0,0.75,0],[0,0.5,0],[0,0.25,0]];shape=mxgraph.bpmn.task;whiteSpace=wrap;rectStyle=rounded;size=10;html=1;container=1;expand=0;collapsible=0;taskMarker=abstract;strokeColor=default;align=center;verticalAlign=middle;fontFamily=Helvetica;fontSize=12;fontColor=default;fontStyle=1;fillColor=default;" parent="Pn4WweYOpcGrfkvwjS48-10" vertex="1">
          <mxGeometry x="170" y="100" width="120" height="80" as="geometry" />
        </mxCell>
        <mxCell id="Pn4WweYOpcGrfkvwjS48-93" style="edgeStyle=orthogonalEdgeStyle;rounded=0;orthogonalLoop=1;jettySize=auto;html=1;fontFamily=Helvetica;fontSize=12;fontColor=default;fontStyle=1;" parent="Pn4WweYOpcGrfkvwjS48-10" source="Pn4WweYOpcGrfkvwjS48-71" target="Pn4WweYOpcGrfkvwjS48-72" edge="1">
          <mxGeometry relative="1" as="geometry" />
        </mxCell>
        <mxCell id="Pn4WweYOpcGrfkvwjS48-71" value="&lt;font style=&quot;font-size: 18px;&quot;&gt;Check Documents&lt;/font&gt;" style="points=[[0.25,0,0],[0.5,0,0],[0.75,0,0],[1,0.25,0],[1,0.5,0],[1,0.75,0],[0.75,1,0],[0.5,1,0],[0.25,1,0],[0,0.75,0],[0,0.5,0],[0,0.25,0]];shape=mxgraph.bpmn.task;whiteSpace=wrap;rectStyle=rounded;size=10;html=1;container=1;expand=0;collapsible=0;taskMarker=abstract;strokeColor=default;align=center;verticalAlign=middle;fontFamily=Helvetica;fontSize=12;fontColor=default;fontStyle=1;fillColor=default;" parent="Pn4WweYOpcGrfkvwjS48-10" vertex="1">
          <mxGeometry x="350" y="100" width="120" height="80" as="geometry" />
        </mxCell>
        <mxCell id="zia7eN0cnvc3IN7epjm3-3" value="" style="edgeStyle=orthogonalEdgeStyle;rounded=0;orthogonalLoop=1;jettySize=auto;html=1;" parent="Pn4WweYOpcGrfkvwjS48-10" source="Pn4WweYOpcGrfkvwjS48-72" target="zia7eN0cnvc3IN7epjm3-2" edge="1">
          <mxGeometry relative="1" as="geometry" />
        </mxCell>
        <mxCell id="Pn4WweYOpcGrfkvwjS48-72" value="&lt;font style=&quot;font-size: 18px;&quot;&gt;Evaluate&lt;/font&gt;" style="points=[[0.25,0,0],[0.5,0,0],[0.75,0,0],[1,0.25,0],[1,0.5,0],[1,0.75,0],[0.75,1,0],[0.5,1,0],[0.25,1,0],[0,0.75,0],[0,0.5,0],[0,0.25,0]];shape=mxgraph.bpmn.task;whiteSpace=wrap;rectStyle=rounded;size=10;html=1;container=1;expand=0;collapsible=0;taskMarker=abstract;strokeColor=default;align=center;verticalAlign=middle;fontFamily=Helvetica;fontSize=12;fontColor=default;fontStyle=1;fillColor=default;" parent="Pn4WweYOpcGrfkvwjS48-10" vertex="1">
          <mxGeometry x="510" y="100" width="120" height="80" as="geometry" />
        </mxCell>
        <mxCell id="Pn4WweYOpcGrfkvwjS48-75" value="&lt;font style=&quot;font-size: 18px;&quot;&gt;Invite Aptitude Test&lt;/font&gt;" style="points=[[0.25,0,0],[0.5,0,0],[0.75,0,0],[1,0.25,0],[1,0.5,0],[1,0.75,0],[0.75,1,0],[0.5,1,0],[0.25,1,0],[0,0.75,0],[0,0.5,0],[0,0.25,0]];shape=mxgraph.bpmn.task;whiteSpace=wrap;rectStyle=rounded;size=10;html=1;container=1;expand=0;collapsible=0;taskMarker=abstract;strokeColor=default;align=center;verticalAlign=middle;fontFamily=Helvetica;fontSize=12;fontColor=default;fontStyle=1;fillColor=default;" parent="Pn4WweYOpcGrfkvwjS48-10" vertex="1">
          <mxGeometry x="1220" y="20" width="120" height="80" as="geometry" />
        </mxCell>
        <mxCell id="bj5GfQhjBjfG_a5erBIj-50" style="edgeStyle=orthogonalEdgeStyle;rounded=0;orthogonalLoop=1;jettySize=auto;html=1;" edge="1" parent="Pn4WweYOpcGrfkvwjS48-10" source="Pn4WweYOpcGrfkvwjS48-76">
          <mxGeometry relative="1" as="geometry">
            <mxPoint x="1170" y="180" as="targetPoint" />
            <Array as="points">
              <mxPoint x="1170" y="220" />
            </Array>
          </mxGeometry>
        </mxCell>
        <mxCell id="Pn4WweYOpcGrfkvwjS48-76" value="&lt;font style=&quot;font-size: 18px;&quot;&gt;Keep Applicant Pool&lt;/font&gt;" style="points=[[0.25,0,0],[0.5,0,0],[0.75,0,0],[1,0.25,0],[1,0.5,0],[1,0.75,0],[0.75,1,0],[0.5,1,0],[0.25,1,0],[0,0.75,0],[0,0.5,0],[0,0.25,0]];shape=mxgraph.bpmn.task;whiteSpace=wrap;rectStyle=rounded;size=10;html=1;container=1;expand=0;collapsible=0;taskMarker=abstract;strokeColor=default;align=center;verticalAlign=middle;fontFamily=Helvetica;fontSize=12;fontColor=default;fontStyle=1;fillColor=default;" parent="Pn4WweYOpcGrfkvwjS48-10" vertex="1">
          <mxGeometry x="1210" y="180" width="120" height="80" as="geometry" />
        </mxCell>
        <mxCell id="Pn4WweYOpcGrfkvwjS48-84" value="" style="edgeStyle=orthogonalEdgeStyle;rounded=0;orthogonalLoop=1;jettySize=auto;html=1;fontFamily=Helvetica;fontSize=12;fontColor=default;fontStyle=1;" parent="Pn4WweYOpcGrfkvwjS48-10" source="Pn4WweYOpcGrfkvwjS48-82" target="Pn4WweYOpcGrfkvwjS48-83" edge="1">
          <mxGeometry relative="1" as="geometry" />
        </mxCell>
        <mxCell id="Pn4WweYOpcGrfkvwjS48-82" value="&lt;font style=&quot;font-size: 18px;&quot;&gt;Rank&lt;/font&gt;" style="points=[[0.25,0,0],[0.5,0,0],[0.75,0,0],[1,0.25,0],[1,0.5,0],[1,0.75,0],[0.75,1,0],[0.5,1,0],[0.25,1,0],[0,0.75,0],[0,0.5,0],[0,0.25,0]];shape=mxgraph.bpmn.task;whiteSpace=wrap;rectStyle=rounded;size=10;html=1;container=1;expand=0;collapsible=0;taskMarker=abstract;strokeColor=default;align=center;verticalAlign=middle;fontFamily=Helvetica;fontSize=12;fontColor=default;fontStyle=1;fillColor=default;" parent="Pn4WweYOpcGrfkvwjS48-10" vertex="1">
          <mxGeometry x="1480" y="90" width="120" height="80" as="geometry" />
        </mxCell>
        <mxCell id="Pn4WweYOpcGrfkvwjS48-83" value="" style="whiteSpace=wrap;html=1;fontStyle=1;points=[[0.25,0.25,0],[0.5,0,0],[0.75,0.25,0],[1,0.5,0],[0.75,0.75,0],[0.5,1,0],[0.25,0.75,0],[0,0.5,0]];shape=mxgraph.bpmn.gateway2;verticalLabelPosition=bottom;labelBackgroundColor=#ffffff;verticalAlign=top;perimeter=rhombusPerimeter;outlineConnect=0;outline=none;symbol=none;gwType=exclusive;" parent="Pn4WweYOpcGrfkvwjS48-10" vertex="1">
          <mxGeometry x="1670" y="90" width="80" height="80" as="geometry" />
        </mxCell>
        <mxCell id="Pn4WweYOpcGrfkvwjS48-96" value="" style="edgeStyle=orthogonalEdgeStyle;rounded=0;orthogonalLoop=1;jettySize=auto;html=1;fontFamily=Helvetica;fontSize=12;fontColor=default;fontStyle=1;" parent="Pn4WweYOpcGrfkvwjS48-10" source="Pn4WweYOpcGrfkvwjS48-89" target="Pn4WweYOpcGrfkvwjS48-95" edge="1">
          <mxGeometry relative="1" as="geometry">
            <Array as="points">
              <mxPoint x="2020" y="60" />
            </Array>
          </mxGeometry>
        </mxCell>
        <mxCell id="Pn4WweYOpcGrfkvwjS48-89" value="&lt;font style=&quot;font-size: 18px;&quot;&gt;Send Accept&lt;/font&gt;" style="points=[[0.25,0,0],[0.5,0,0],[0.75,0,0],[1,0.25,0],[1,0.5,0],[1,0.75,0],[0.75,1,0],[0.5,1,0],[0.25,1,0],[0,0.75,0],[0,0.5,0],[0,0.25,0]];shape=mxgraph.bpmn.task;whiteSpace=wrap;rectStyle=rounded;size=10;html=1;container=1;expand=0;collapsible=0;taskMarker=abstract;strokeColor=default;align=center;verticalAlign=middle;fontFamily=Helvetica;fontSize=12;fontColor=default;fontStyle=1;fillColor=default;" parent="Pn4WweYOpcGrfkvwjS48-10" vertex="1">
          <mxGeometry x="1810" y="20" width="120" height="80" as="geometry" />
        </mxCell>
        <mxCell id="Pn4WweYOpcGrfkvwjS48-90" value="&lt;font style=&quot;font-size: 18px;&quot;&gt;Send Reject&lt;/font&gt;" style="points=[[0.25,0,0],[0.5,0,0],[0.75,0,0],[1,0.25,0],[1,0.5,0],[1,0.75,0],[0.75,1,0],[0.5,1,0],[0.25,1,0],[0,0.75,0],[0,0.5,0],[0,0.25,0]];shape=mxgraph.bpmn.task;whiteSpace=wrap;rectStyle=rounded;size=10;html=1;container=1;expand=0;collapsible=0;taskMarker=abstract;strokeColor=default;align=center;verticalAlign=middle;fontFamily=Helvetica;fontSize=12;fontColor=default;fontStyle=1;fillColor=default;" parent="Pn4WweYOpcGrfkvwjS48-10" vertex="1">
          <mxGeometry x="1810" y="170" width="120" height="80" as="geometry" />
        </mxCell>
        <mxCell id="Pn4WweYOpcGrfkvwjS48-92" style="edgeStyle=orthogonalEdgeStyle;rounded=0;orthogonalLoop=1;jettySize=auto;html=1;entryX=0;entryY=0.5;entryDx=0;entryDy=0;entryPerimeter=0;fontFamily=Helvetica;fontSize=12;fontColor=default;fontStyle=1;" parent="Pn4WweYOpcGrfkvwjS48-10" source="Pn4WweYOpcGrfkvwjS48-70" target="Pn4WweYOpcGrfkvwjS48-71" edge="1">
          <mxGeometry relative="1" as="geometry" />
        </mxCell>
        <mxCell id="Pn4WweYOpcGrfkvwjS48-95" value="" style="whiteSpace=wrap;html=1;fontStyle=1;points=[[0.25,0.25,0],[0.5,0,0],[0.75,0.25,0],[1,0.5,0],[0.75,0.75,0],[0.5,1,0],[0.25,0.75,0],[0,0.5,0]];shape=mxgraph.bpmn.gateway2;verticalLabelPosition=bottom;labelBackgroundColor=#ffffff;verticalAlign=top;perimeter=rhombusPerimeter;outlineConnect=0;outline=none;symbol=none;gwType=exclusive;" parent="Pn4WweYOpcGrfkvwjS48-10" vertex="1">
          <mxGeometry x="1980" y="100" width="80" height="80" as="geometry" />
        </mxCell>
        <mxCell id="Pn4WweYOpcGrfkvwjS48-97" style="edgeStyle=orthogonalEdgeStyle;rounded=0;orthogonalLoop=1;jettySize=auto;html=1;entryX=0;entryY=0.5;entryDx=0;entryDy=0;entryPerimeter=0;fontFamily=Helvetica;fontSize=12;fontColor=default;fontStyle=1;" parent="Pn4WweYOpcGrfkvwjS48-10" source="Pn4WweYOpcGrfkvwjS48-83" target="Pn4WweYOpcGrfkvwjS48-89" edge="1">
          <mxGeometry relative="1" as="geometry">
            <Array as="points">
              <mxPoint x="1710" y="60" />
            </Array>
          </mxGeometry>
        </mxCell>
        <mxCell id="Pn4WweYOpcGrfkvwjS48-98" style="edgeStyle=orthogonalEdgeStyle;rounded=0;orthogonalLoop=1;jettySize=auto;html=1;entryX=0;entryY=0.5;entryDx=0;entryDy=0;entryPerimeter=0;fontFamily=Helvetica;fontSize=12;fontColor=default;fontStyle=1;" parent="Pn4WweYOpcGrfkvwjS48-10" source="Pn4WweYOpcGrfkvwjS48-83" target="Pn4WweYOpcGrfkvwjS48-90" edge="1">
          <mxGeometry relative="1" as="geometry">
            <Array as="points">
              <mxPoint x="1710" y="210" />
            </Array>
          </mxGeometry>
        </mxCell>
        <mxCell id="Pn4WweYOpcGrfkvwjS48-99" style="edgeStyle=orthogonalEdgeStyle;rounded=0;orthogonalLoop=1;jettySize=auto;html=1;entryX=0.5;entryY=1;entryDx=0;entryDy=0;entryPerimeter=0;fontFamily=Helvetica;fontSize=12;fontColor=default;fontStyle=1;" parent="Pn4WweYOpcGrfkvwjS48-10" source="Pn4WweYOpcGrfkvwjS48-90" target="Pn4WweYOpcGrfkvwjS48-95" edge="1">
          <mxGeometry relative="1" as="geometry" />
        </mxCell>
        <mxCell id="Pn4WweYOpcGrfkvwjS48-102" style="edgeStyle=orthogonalEdgeStyle;rounded=0;orthogonalLoop=1;jettySize=auto;html=1;entryX=0.5;entryY=0;entryDx=0;entryDy=0;entryPerimeter=0;fontFamily=Helvetica;fontSize=12;fontColor=default;fontStyle=1;dashed=1;" parent="Pn4WweYOpcGrfkvwjS48-10" target="Pn4WweYOpcGrfkvwjS48-70" edge="1">
          <mxGeometry relative="1" as="geometry">
            <mxPoint x="360.00000000000045" y="-30.000000000000227" as="sourcePoint" />
            <mxPoint x="240.00000000000045" y="120" as="targetPoint" />
            <Array as="points">
              <mxPoint x="230" y="-30" />
            </Array>
          </mxGeometry>
        </mxCell>
        <mxCell id="zia7eN0cnvc3IN7epjm3-1" style="edgeStyle=orthogonalEdgeStyle;rounded=0;orthogonalLoop=1;jettySize=auto;html=1;entryX=0;entryY=0.5;entryDx=0;entryDy=0;entryPerimeter=0;" parent="Pn4WweYOpcGrfkvwjS48-10" source="Pn4WweYOpcGrfkvwjS48-95" edge="1">
          <mxGeometry relative="1" as="geometry">
            <mxPoint x="2140" y="140" as="targetPoint" />
          </mxGeometry>
        </mxCell>
        <mxCell id="zia7eN0cnvc3IN7epjm3-2" value="&lt;font style=&quot;font-size: 18px;&quot;&gt;Send Evaluation&lt;/font&gt;" style="points=[[0.25,0,0],[0.5,0,0],[0.75,0,0],[1,0.25,0],[1,0.5,0],[1,0.75,0],[0.75,1,0],[0.5,1,0],[0.25,1,0],[0,0.75,0],[0,0.5,0],[0,0.25,0]];shape=mxgraph.bpmn.task;whiteSpace=wrap;rectStyle=rounded;size=10;html=1;container=1;expand=0;collapsible=0;taskMarker=abstract;strokeColor=default;align=center;verticalAlign=middle;fontFamily=Helvetica;fontSize=12;fontColor=default;fontStyle=1;fillColor=default;" parent="Pn4WweYOpcGrfkvwjS48-10" vertex="1">
          <mxGeometry x="680" y="100" width="120" height="80" as="geometry" />
        </mxCell>
        <mxCell id="KfMSl_JOXlQHp5Cxq9lI-1" value="&lt;font style=&quot;font-size: 18px;&quot;&gt;Receive Payment&lt;/font&gt;" style="points=[[0.25,0,0],[0.5,0,0],[0.75,0,0],[1,0.25,0],[1,0.5,0],[1,0.75,0],[0.75,1,0],[0.5,1,0],[0.25,1,0],[0,0.75,0],[0,0.5,0],[0,0.25,0]];shape=mxgraph.bpmn.task;whiteSpace=wrap;rectStyle=rounded;size=10;html=1;container=1;expand=0;collapsible=0;taskMarker=abstract;strokeColor=default;align=center;verticalAlign=middle;fontFamily=Helvetica;fontSize=12;fontColor=default;fontStyle=1;fillColor=default;" parent="Pn4WweYOpcGrfkvwjS48-10" vertex="1">
          <mxGeometry x="970" y="100" width="120" height="80" as="geometry" />
        </mxCell>
        <mxCell id="KfMSl_JOXlQHp5Cxq9lI-16" style="edgeStyle=orthogonalEdgeStyle;rounded=0;orthogonalLoop=1;jettySize=auto;html=1;entryX=0;entryY=0.5;entryDx=0;entryDy=0;entryPerimeter=0;" parent="Pn4WweYOpcGrfkvwjS48-10" source="Pn4WweYOpcGrfkvwjS48-75" target="Pn4WweYOpcGrfkvwjS48-82" edge="1">
          <mxGeometry relative="1" as="geometry" />
        </mxCell>
        <mxCell id="KfMSl_JOXlQHp5Cxq9lI-22" value="&lt;font style=&quot;font-size: 18px;&quot;&gt;Ready？&lt;/font&gt;" style="text;html=1;align=center;verticalAlign=middle;whiteSpace=wrap;rounded=0;" parent="Pn4WweYOpcGrfkvwjS48-10" vertex="1">
          <mxGeometry x="1200" y="100" width="60" height="30" as="geometry" />
        </mxCell>
        <mxCell id="KfMSl_JOXlQHp5Cxq9lI-23" value="&lt;font style=&quot;font-size: 18px;&quot;&gt;Yes&lt;/font&gt;" style="text;html=1;align=center;verticalAlign=middle;whiteSpace=wrap;rounded=0;" parent="Pn4WweYOpcGrfkvwjS48-10" vertex="1">
          <mxGeometry x="1110" y="60" width="60" height="30" as="geometry" />
        </mxCell>
        <mxCell id="KfMSl_JOXlQHp5Cxq9lI-24" value="&lt;font style=&quot;font-size: 18px;&quot;&gt;No&lt;/font&gt;" style="text;html=1;align=center;verticalAlign=middle;whiteSpace=wrap;rounded=0;" parent="Pn4WweYOpcGrfkvwjS48-10" vertex="1">
          <mxGeometry x="1140" y="140" width="60" height="30" as="geometry" />
        </mxCell>
        <mxCell id="mgnWJrX63PkzNC0RkX6C-1" value="" style="points=[[0.25,0.25,0],[0.5,0,0],[0.75,0.25,0],[1,0.5,0],[0.75,0.75,0],[0.5,1,0],[0.25,0.75,0],[0,0.5,0]];shape=mxgraph.bpmn.gateway2;html=1;verticalLabelPosition=bottom;labelBackgroundColor=#ffffff;verticalAlign=top;align=center;perimeter=rhombusPerimeter;outlineConnect=0;outline=none;symbol=none;gwType=exclusive;" parent="Pn4WweYOpcGrfkvwjS48-10" vertex="1">
          <mxGeometry x="1130" y="100" width="80" height="80" as="geometry" />
        </mxCell>
        <mxCell id="bj5GfQhjBjfG_a5erBIj-46" style="edgeStyle=orthogonalEdgeStyle;rounded=0;orthogonalLoop=1;jettySize=auto;html=1;entryX=0;entryY=0.5;entryDx=0;entryDy=0;entryPerimeter=0;" edge="1" parent="Pn4WweYOpcGrfkvwjS48-10" source="KfMSl_JOXlQHp5Cxq9lI-1" target="mgnWJrX63PkzNC0RkX6C-1">
          <mxGeometry relative="1" as="geometry" />
        </mxCell>
        <mxCell id="bj5GfQhjBjfG_a5erBIj-47" style="edgeStyle=orthogonalEdgeStyle;rounded=0;orthogonalLoop=1;jettySize=auto;html=1;entryX=0.5;entryY=0;entryDx=0;entryDy=0;entryPerimeter=0;" edge="1" parent="Pn4WweYOpcGrfkvwjS48-10" source="mgnWJrX63PkzNC0RkX6C-1" target="Pn4WweYOpcGrfkvwjS48-76">
          <mxGeometry relative="1" as="geometry">
            <Array as="points">
              <mxPoint x="1270" y="130" />
            </Array>
          </mxGeometry>
        </mxCell>
        <mxCell id="bj5GfQhjBjfG_a5erBIj-48" value="&lt;font style=&quot;font-size: 18px;&quot;&gt;No&lt;/font&gt;" style="text;html=1;align=center;verticalAlign=middle;whiteSpace=wrap;rounded=0;" vertex="1" parent="Pn4WweYOpcGrfkvwjS48-10">
          <mxGeometry x="1260" y="130" width="60" height="30" as="geometry" />
        </mxCell>
        <mxCell id="bj5GfQhjBjfG_a5erBIj-51" style="edgeStyle=orthogonalEdgeStyle;rounded=0;orthogonalLoop=1;jettySize=auto;html=1;entryX=0;entryY=0.5;entryDx=0;entryDy=0;entryPerimeter=0;" edge="1" parent="Pn4WweYOpcGrfkvwjS48-10" source="mgnWJrX63PkzNC0RkX6C-1" target="Pn4WweYOpcGrfkvwjS48-75">
          <mxGeometry relative="1" as="geometry">
            <Array as="points">
              <mxPoint x="1170" y="60" />
            </Array>
          </mxGeometry>
        </mxCell>
        <mxCell id="bj5GfQhjBjfG_a5erBIj-52" value="" style="whiteSpace=wrap;html=1;fontStyle=1;points=[[0.25,0.25,0],[0.5,0,0],[0.75,0.25,0],[1,0.5,0],[0.75,0.75,0],[0.5,1,0],[0.25,0.75,0],[0,0.5,0]];shape=mxgraph.bpmn.gateway2;verticalLabelPosition=bottom;labelBackgroundColor=#ffffff;verticalAlign=top;perimeter=rhombusPerimeter;outlineConnect=0;outline=none;symbol=none;gwType=exclusive;" vertex="1" parent="Pn4WweYOpcGrfkvwjS48-10">
          <mxGeometry x="850" y="100" width="80" height="80" as="geometry" />
        </mxCell>
        <mxCell id="bj5GfQhjBjfG_a5erBIj-53" style="edgeStyle=orthogonalEdgeStyle;rounded=0;orthogonalLoop=1;jettySize=auto;html=1;entryX=0;entryY=0.5;entryDx=0;entryDy=0;entryPerimeter=0;" edge="1" parent="Pn4WweYOpcGrfkvwjS48-10" source="zia7eN0cnvc3IN7epjm3-2" target="bj5GfQhjBjfG_a5erBIj-52">
          <mxGeometry relative="1" as="geometry" />
        </mxCell>
        <mxCell id="bj5GfQhjBjfG_a5erBIj-54" style="edgeStyle=orthogonalEdgeStyle;rounded=0;orthogonalLoop=1;jettySize=auto;html=1;entryX=0;entryY=0.5;entryDx=0;entryDy=0;entryPerimeter=0;" edge="1" parent="Pn4WweYOpcGrfkvwjS48-10" source="bj5GfQhjBjfG_a5erBIj-52" target="KfMSl_JOXlQHp5Cxq9lI-1">
          <mxGeometry relative="1" as="geometry" />
        </mxCell>
        <mxCell id="bj5GfQhjBjfG_a5erBIj-56" value="" style="whiteSpace=wrap;html=1;fontStyle=1;points=[[0.25,0.25,0],[0.5,0,0],[0.75,0.25,0],[1,0.5,0],[0.75,0.75,0],[0.5,1,0],[0.25,0.75,0],[0,0.5,0]];shape=mxgraph.bpmn.gateway2;verticalLabelPosition=bottom;labelBackgroundColor=#ffffff;verticalAlign=top;perimeter=rhombusPerimeter;outlineConnect=0;outline=none;symbol=none;gwType=exclusive;" vertex="1" parent="Pn4WweYOpcGrfkvwjS48-10">
          <mxGeometry x="2140" y="100" width="80" height="80" as="geometry" />
        </mxCell>
        <mxCell id="bj5GfQhjBjfG_a5erBIj-57" style="edgeStyle=orthogonalEdgeStyle;rounded=0;orthogonalLoop=1;jettySize=auto;html=1;entryX=0.5;entryY=1;entryDx=0;entryDy=0;entryPerimeter=0;exitX=0.5;exitY=1;exitDx=0;exitDy=0;exitPerimeter=0;" edge="1" parent="Pn4WweYOpcGrfkvwjS48-10" source="bj5GfQhjBjfG_a5erBIj-52" target="bj5GfQhjBjfG_a5erBIj-56">
          <mxGeometry relative="1" as="geometry">
            <Array as="points">
              <mxPoint x="890" y="300" />
              <mxPoint x="2180" y="300" />
            </Array>
          </mxGeometry>
        </mxCell>
        <mxCell id="bj5GfQhjBjfG_a5erBIj-58" value="&lt;font style=&quot;font-size: 18px;&quot;&gt;Reject&lt;/font&gt;" style="text;html=1;align=center;verticalAlign=middle;whiteSpace=wrap;rounded=0;" vertex="1" parent="Pn4WweYOpcGrfkvwjS48-10">
          <mxGeometry x="900" y="240" width="60" height="30" as="geometry" />
        </mxCell>
        <mxCell id="bj5GfQhjBjfG_a5erBIj-59" value="&lt;font style=&quot;font-size: 18px;&quot;&gt;Accept&lt;/font&gt;" style="text;html=1;align=center;verticalAlign=middle;whiteSpace=wrap;rounded=0;" vertex="1" parent="Pn4WweYOpcGrfkvwjS48-10">
          <mxGeometry x="910" y="90" width="60" height="30" as="geometry" />
        </mxCell>
        <mxCell id="bj5GfQhjBjfG_a5erBIj-63" value="" style="points=[[0.145,0.145,0],[0.5,0,0],[0.855,0.145,0],[1,0.5,0],[0.855,0.855,0],[0.5,1,0],[0.145,0.855,0],[0,0.5,0]];shape=mxgraph.bpmn.event;html=1;verticalLabelPosition=bottom;labelBackgroundColor=#ffffff;verticalAlign=top;align=center;perimeter=ellipsePerimeter;outlineConnect=0;aspect=fixed;outline=end;symbol=terminate2;strokeColor=default;fontFamily=Helvetica;fontSize=12;fontColor=default;fontStyle=1;fillColor=default;" vertex="1" parent="Pn4WweYOpcGrfkvwjS48-10">
          <mxGeometry x="2330" y="110" width="60" height="60" as="geometry" />
        </mxCell>
        <mxCell id="bj5GfQhjBjfG_a5erBIj-64" style="edgeStyle=orthogonalEdgeStyle;rounded=0;orthogonalLoop=1;jettySize=auto;html=1;entryX=0;entryY=0.5;entryDx=0;entryDy=0;entryPerimeter=0;" edge="1" parent="Pn4WweYOpcGrfkvwjS48-10" source="bj5GfQhjBjfG_a5erBIj-56" target="bj5GfQhjBjfG_a5erBIj-63">
          <mxGeometry relative="1" as="geometry" />
        </mxCell>
        <mxCell id="Pn4WweYOpcGrfkvwjS48-104" value="" style="edgeStyle=orthogonalEdgeStyle;rounded=0;orthogonalLoop=1;jettySize=auto;html=1;entryX=0.5;entryY=0;entryDx=0;entryDy=0;entryPerimeter=0;fontFamily=Helvetica;fontSize=12;fontColor=default;fontStyle=1;dashed=1;" parent="1" source="Pn4WweYOpcGrfkvwjS48-17" target="Pn4WweYOpcGrfkvwjS48-103" edge="1">
          <mxGeometry relative="1" as="geometry">
            <mxPoint x="610" y="303" as="sourcePoint" />
            <mxPoint x="140" y="690" as="targetPoint" />
            <Array as="points">
              <mxPoint x="560" y="540" />
              <mxPoint x="410" y="540" />
            </Array>
          </mxGeometry>
        </mxCell>
        <mxCell id="Pn4WweYOpcGrfkvwjS48-103" value="" style="verticalLabelPosition=bottom;shadow=0;dashed=0;align=center;html=1;verticalAlign=top;strokeWidth=1;shape=mxgraph.mockup.misc.mail2;strokeColor=#0D0D0D;fontFamily=Helvetica;fontSize=12;fontColor=default;fontStyle=1;fillColor=default;" parent="1" vertex="1">
          <mxGeometry x="380" y="520" width="60" height="40" as="geometry" />
        </mxCell>
        <mxCell id="Pn4WweYOpcGrfkvwjS48-105" value="&lt;font style=&quot;font-size: 18px; font-weight: normal;&quot;&gt;document&lt;/font&gt;" style="text;html=1;align=center;verticalAlign=middle;resizable=0;points=[];autosize=1;strokeColor=none;fillColor=none;fontFamily=Helvetica;fontSize=12;fontColor=default;fontStyle=1;" parent="1" vertex="1">
          <mxGeometry x="280" y="510" width="100" height="40" as="geometry" />
        </mxCell>
        <mxCell id="Pn4WweYOpcGrfkvwjS48-106" style="edgeStyle=orthogonalEdgeStyle;rounded=0;orthogonalLoop=1;jettySize=auto;html=1;entryX=0.5;entryY=1;entryDx=0;entryDy=0;entryPerimeter=0;fontFamily=Helvetica;fontSize=12;fontColor=default;fontStyle=1;dashed=1;" parent="1" source="Pn4WweYOpcGrfkvwjS48-114" target="Pn4WweYOpcGrfkvwjS48-60" edge="1">
          <mxGeometry relative="1" as="geometry" />
        </mxCell>
        <mxCell id="Pn4WweYOpcGrfkvwjS48-107" style="edgeStyle=orthogonalEdgeStyle;rounded=0;orthogonalLoop=1;jettySize=auto;html=1;fontFamily=Helvetica;fontSize=12;fontColor=default;fontStyle=1;dashed=1;" parent="1" source="Pn4WweYOpcGrfkvwjS48-110" target="Pn4WweYOpcGrfkvwjS48-58" edge="1">
          <mxGeometry relative="1" as="geometry">
            <Array as="points">
              <mxPoint x="1590" y="180" />
              <mxPoint x="1910" y="180" />
            </Array>
          </mxGeometry>
        </mxCell>
        <mxCell id="Pn4WweYOpcGrfkvwjS48-110" value="" style="verticalLabelPosition=bottom;shadow=0;dashed=0;align=center;html=1;verticalAlign=top;strokeWidth=1;shape=mxgraph.mockup.misc.mail2;strokeColor=#0D0D0D;fontFamily=Helvetica;fontSize=12;fontColor=default;fontStyle=1;fillColor=default;" parent="1" vertex="1">
          <mxGeometry x="1540" y="515" width="60" height="40" as="geometry" />
        </mxCell>
        <mxCell id="Pn4WweYOpcGrfkvwjS48-115" value="" style="edgeStyle=orthogonalEdgeStyle;rounded=0;orthogonalLoop=1;jettySize=auto;html=1;entryX=0.5;entryY=1;entryDx=0;entryDy=0;entryPerimeter=0;fontFamily=Helvetica;fontSize=12;fontColor=default;fontStyle=1;dashed=1;" parent="1" source="Pn4WweYOpcGrfkvwjS48-89" target="Pn4WweYOpcGrfkvwjS48-114" edge="1">
          <mxGeometry relative="1" as="geometry">
            <mxPoint x="1660" y="600" as="sourcePoint" />
            <mxPoint x="1690" y="430" as="targetPoint" />
            <Array as="points">
              <mxPoint x="1910" y="590" />
              <mxPoint x="1910" y="590" />
            </Array>
          </mxGeometry>
        </mxCell>
        <mxCell id="Pn4WweYOpcGrfkvwjS48-114" value="" style="verticalLabelPosition=bottom;shadow=0;dashed=0;align=center;html=1;verticalAlign=top;strokeWidth=1;shape=mxgraph.mockup.misc.mail2;strokeColor=#0D0D0D;fontFamily=Helvetica;fontSize=12;fontColor=default;fontStyle=1;fillColor=default;" parent="1" vertex="1">
          <mxGeometry x="1880" y="510" width="60" height="40" as="geometry" />
        </mxCell>
        <mxCell id="Pn4WweYOpcGrfkvwjS48-116" value="&lt;font style=&quot;font-size: 18px;&quot;&gt;reject&lt;/font&gt;" style="text;html=1;align=center;verticalAlign=middle;resizable=0;points=[];autosize=1;strokeColor=none;fillColor=none;fontFamily=Helvetica;fontSize=12;fontColor=default;fontStyle=1;" parent="1" vertex="1">
          <mxGeometry x="1470" y="513" width="70" height="40" as="geometry" />
        </mxCell>
        <mxCell id="Pn4WweYOpcGrfkvwjS48-117" value="&lt;font style=&quot;font-size: 18px;&quot;&gt;accept&lt;/font&gt;" style="text;html=1;align=center;verticalAlign=middle;resizable=0;points=[];autosize=1;strokeColor=none;fillColor=none;fontFamily=Helvetica;fontSize=12;fontColor=default;fontStyle=1;" parent="1" vertex="1">
          <mxGeometry x="1940" y="510" width="80" height="40" as="geometry" />
        </mxCell>
        <mxCell id="4EXdFSTyuXDdfIWTXwxw-6" style="edgeStyle=orthogonalEdgeStyle;rounded=0;orthogonalLoop=1;jettySize=auto;html=1;entryX=0.5;entryY=1;entryDx=0;entryDy=0;entryPerimeter=0;dashed=1;" parent="1" source="4EXdFSTyuXDdfIWTXwxw-9" target="Pn4WweYOpcGrfkvwjS48-34" edge="1">
          <mxGeometry relative="1" as="geometry">
            <Array as="points">
              <mxPoint x="1340" y="535" />
            </Array>
          </mxGeometry>
        </mxCell>
        <mxCell id="4EXdFSTyuXDdfIWTXwxw-7" value="" style="verticalLabelPosition=bottom;shadow=0;dashed=0;align=center;html=1;verticalAlign=top;strokeWidth=1;shape=mxgraph.mockup.misc.mail2;strokeColor=#0D0D0D;fontFamily=Helvetica;fontSize=12;fontColor=default;fontStyle=1;fillColor=default;" parent="1" vertex="1">
          <mxGeometry x="1050" y="520" width="60" height="40" as="geometry" />
        </mxCell>
        <mxCell id="4EXdFSTyuXDdfIWTXwxw-9" value="" style="verticalLabelPosition=bottom;shadow=0;dashed=0;align=center;html=1;verticalAlign=top;strokeWidth=1;shape=mxgraph.mockup.misc.mail2;strokeColor=#0D0D0D;fontFamily=Helvetica;fontSize=12;fontColor=default;fontStyle=1;fillColor=default;" parent="1" vertex="1">
          <mxGeometry x="1310" y="500" width="60" height="40" as="geometry" />
        </mxCell>
        <mxCell id="4EXdFSTyuXDdfIWTXwxw-13" value="&lt;span style=&quot;font-size: 18px;&quot;&gt;payment&lt;/span&gt;" style="text;html=1;align=center;verticalAlign=middle;resizable=0;points=[];autosize=1;strokeColor=none;fillColor=none;" parent="1" vertex="1">
          <mxGeometry x="960" y="515" width="90" height="40" as="geometry" />
        </mxCell>
        <mxCell id="4EXdFSTyuXDdfIWTXwxw-14" value="&lt;span style=&quot;font-size: 18px;&quot;&gt;invitation&lt;/span&gt;" style="text;html=1;align=center;verticalAlign=middle;resizable=0;points=[];autosize=1;strokeColor=none;fillColor=none;" parent="1" vertex="1">
          <mxGeometry x="1220" y="500" width="90" height="40" as="geometry" />
        </mxCell>
        <mxCell id="4EXdFSTyuXDdfIWTXwxw-19" style="edgeStyle=orthogonalEdgeStyle;rounded=0;orthogonalLoop=1;jettySize=auto;html=1;entryX=0.5;entryY=1;entryDx=0;entryDy=0;entryPerimeter=0;dashed=1;exitX=0.5;exitY=0;exitDx=0;exitDy=0;exitPerimeter=0;" parent="1" source="zia7eN0cnvc3IN7epjm3-2" target="4EXdFSTyuXDdfIWTXwxw-15" edge="1">
          <mxGeometry relative="1" as="geometry">
            <mxPoint x="620" y="680" as="sourcePoint" />
            <Array as="points">
              <mxPoint x="790" y="510" />
              <mxPoint x="690" y="510" />
            </Array>
          </mxGeometry>
        </mxCell>
        <mxCell id="4EXdFSTyuXDdfIWTXwxw-21" value="" style="verticalLabelPosition=bottom;shadow=0;dashed=0;align=center;html=1;verticalAlign=top;strokeWidth=1;shape=mxgraph.mockup.misc.mail2;strokeColor=#0D0D0D;fontFamily=Helvetica;fontSize=12;fontColor=default;fontStyle=1;fillColor=default;" parent="1" vertex="1">
          <mxGeometry x="760" y="520" width="60" height="40" as="geometry" />
        </mxCell>
        <mxCell id="4EXdFSTyuXDdfIWTXwxw-22" value="&lt;font style=&quot;font-size: 18px; font-weight: normal;&quot;&gt;evaluation&lt;/font&gt;" style="text;html=1;align=center;verticalAlign=middle;resizable=0;points=[];autosize=1;strokeColor=none;fillColor=none;fontFamily=Helvetica;fontSize=12;fontColor=default;fontStyle=1;" parent="1" vertex="1">
          <mxGeometry x="640" y="513" width="110" height="40" as="geometry" />
        </mxCell>
        <mxCell id="zia7eN0cnvc3IN7epjm3-12" style="edgeStyle=orthogonalEdgeStyle;rounded=0;orthogonalLoop=1;jettySize=auto;html=1;entryX=0.493;entryY=0.046;entryDx=0;entryDy=0;entryPerimeter=0;dashed=1;" parent="1" source="Pn4WweYOpcGrfkvwjS48-35" target="4EXdFSTyuXDdfIWTXwxw-7" edge="1">
          <mxGeometry relative="1" as="geometry" />
        </mxCell>
        <mxCell id="zia7eN0cnvc3IN7epjm3-26" style="edgeStyle=orthogonalEdgeStyle;rounded=0;orthogonalLoop=1;jettySize=auto;html=1;dashed=1;" parent="1" source="Pn4WweYOpcGrfkvwjS48-90" target="Pn4WweYOpcGrfkvwjS48-110" edge="1">
          <mxGeometry relative="1" as="geometry">
            <Array as="points">
              <mxPoint x="1920" y="850" />
              <mxPoint x="1660" y="850" />
              <mxPoint x="1660" y="535" />
            </Array>
          </mxGeometry>
        </mxCell>
        <mxCell id="KfMSl_JOXlQHp5Cxq9lI-4" style="edgeStyle=orthogonalEdgeStyle;rounded=0;orthogonalLoop=1;jettySize=auto;html=1;entryX=0.5;entryY=0;entryDx=0;entryDy=0;entryPerimeter=0;dashed=1;" parent="1" source="4EXdFSTyuXDdfIWTXwxw-7" target="KfMSl_JOXlQHp5Cxq9lI-1" edge="1">
          <mxGeometry relative="1" as="geometry" />
        </mxCell>
        <mxCell id="bj5GfQhjBjfG_a5erBIj-60" style="edgeStyle=orthogonalEdgeStyle;rounded=0;orthogonalLoop=1;jettySize=auto;html=1;dashed=1;" edge="1" parent="1" source="Pn4WweYOpcGrfkvwjS48-75" target="4EXdFSTyuXDdfIWTXwxw-9">
          <mxGeometry relative="1" as="geometry" />
        </mxCell>
      </root>
    </mxGraphModel>
  </diagram>
</mxfile>
